<svg width="90" height="20" viewBox="0 0 90 20" fill="none" xmlns="http://www.w3.org/2000/svg">
<g clip-path="url(#clip0_1_379)">
<path d="M9.22261 5.85467C8.26855 5.06476 7.06874 4.6416 5.69547 4.6416C2.44298 4.6416 0 7.11005 0 10.3684C0 13.6268 2.44298 16.0811 5.69547 16.0811C7.0832 16.0811 8.28301 15.672 9.22261 14.8821V15.6438C9.22261 15.799 9.35271 15.9118 9.49727 15.9118H11.2753C11.4343 15.9118 11.55 15.7849 11.55 15.6438V5.07887C11.55 4.92371 11.4199 4.81087 11.2753 4.81087H9.51173C9.35271 4.81087 9.23707 4.93782 9.23707 5.07887V5.85467H9.22261ZM5.84003 13.8665C3.85962 13.8665 2.3707 12.3573 2.3707 10.3684C2.3707 8.33722 3.83071 6.85615 5.84003 6.85615C7.84934 6.85615 9.29489 8.33722 9.29489 10.3684C9.29489 12.3996 7.83489 13.8665 5.84003 13.8665Z" fill="white"/>
<path d="M21.7126 11.1308C21.7126 12.8798 20.6863 13.8672 18.8938 13.8672C17.1013 13.8672 16.075 12.8657 16.075 11.1308V5.07953C16.075 4.92437 15.9449 4.81152 15.8003 4.81152H13.9934C13.8344 4.81152 13.7188 4.93847 13.7188 5.07953V11.2436C13.7188 14.1916 15.7425 16.0959 18.8938 16.0959C22.0451 16.0959 24.0689 14.1916 24.0689 11.2436V5.07953C24.0689 4.92437 23.9388 4.81152 23.7942 4.81152H22.0018C21.8427 4.81152 21.7271 4.93847 21.7271 5.07953V11.1308H21.7126Z" fill="white"/>
<path d="M34.7812 5.8554C33.8271 5.0655 32.6273 4.64234 31.2541 4.64234C28.0016 4.64234 25.5586 7.11079 25.5586 10.3691C25.5586 13.6275 28.0016 16.0818 31.2541 16.0818C32.6418 16.0818 33.8416 15.6728 34.7812 14.8829V15.6446C34.7812 15.7997 34.9113 15.9126 35.0559 15.9126H36.8339C36.9929 15.9126 37.1085 15.7856 37.1085 15.6446V1.07367C37.1085 0.918507 36.9784 0.805664 36.8339 0.805664H35.0559C34.8969 0.805664 34.7812 0.932613 34.7812 1.07367V5.8554ZM31.3842 13.8673C29.4038 13.8673 27.9148 12.358 27.9148 10.3691C27.9148 8.33796 29.3748 6.85689 31.3842 6.85689C33.3935 6.85689 34.839 8.33796 34.839 10.3691C34.839 12.4003 33.3935 13.8673 31.3842 13.8673Z" fill="white"/>
<path d="M74.9389 0.805664C74.1149 0.805664 73.5078 1.4122 73.5078 2.23031C73.5078 3.04843 74.1149 3.64085 74.9389 3.64085C75.7629 3.64085 76.3845 3.03432 76.3845 2.23031C76.3845 1.4122 75.7629 0.805664 74.9389 0.805664Z" fill="white"/>
<path d="M74.0442 15.9266H75.8367C75.9957 15.9266 76.1113 15.7996 76.1113 15.6586V5.07953C76.1113 4.92437 75.9812 4.81152 75.8367 4.81152H74.0442C73.8852 4.81152 73.7695 4.93847 73.7695 5.07953V15.6727C73.7695 15.8138 73.8852 15.9266 74.0442 15.9266Z" fill="white"/>
<path d="M40.6498 0.805664C39.8259 0.805664 39.2188 1.4122 39.2188 2.23031C39.2188 3.04843 39.8259 3.64085 40.6498 3.64085C41.4738 3.64085 42.0954 3.03432 42.0954 2.23031C42.0954 1.4122 41.4738 0.805664 40.6498 0.805664Z" fill="white"/>
<path d="M39.7395 15.9266H41.532C41.691 15.9266 41.8066 15.7996 41.8066 15.6586V5.07953C41.8066 4.92437 41.6765 4.81152 41.532 4.81152H39.7395C39.5805 4.81152 39.4648 4.93847 39.4648 5.07953V15.6727C39.4648 15.8138 39.5949 15.9266 39.7395 15.9266Z" fill="white"/>
<path d="M49.265 4.6416C45.9114 4.6416 43.3672 7.11005 43.3672 10.3684C43.3672 13.6268 45.8969 16.0811 49.265 16.0811C52.6332 16.0811 55.1773 13.6268 55.1773 10.3684C55.1773 7.11005 52.6332 4.6416 49.265 4.6416ZM49.265 13.8665C47.2557 13.8665 45.7379 12.3573 45.7379 10.3684C45.7379 8.36543 47.2557 6.85615 49.265 6.85615C51.2744 6.85615 52.7922 8.36543 52.7922 10.3684C52.7922 12.3996 51.3033 13.8665 49.265 13.8665Z" fill="white"/>
<path d="M67.6098 6.57404C67.711 6.47531 67.7255 6.30604 67.6243 6.1932C66.6124 5.19171 65.1958 4.6416 63.5912 4.6416C60.2086 4.6416 57.7656 7.05363 57.7656 10.3684C57.7656 13.6832 60.2231 16.0811 63.5912 16.0811C65.1813 16.0811 66.5979 15.531 67.6243 14.5295C67.7255 14.4308 67.7255 14.2615 67.6243 14.1487L66.4245 12.9497C66.3233 12.851 66.1498 12.8369 66.0486 12.9356C65.3403 13.5421 64.4874 13.8524 63.5767 13.8524C61.6108 13.8665 60.1363 12.3714 60.1363 10.3684C60.1363 8.36543 61.6108 6.85615 63.5623 6.85615C64.4874 6.85615 65.3114 7.16647 66.0053 7.7589C66.1209 7.85764 66.2799 7.84353 66.3811 7.74479L67.6098 6.57404Z" fill="white"/>
<path d="M69.3851 15.9267H71.1776C71.3366 15.9267 71.4523 15.7997 71.4523 15.6587V1.07367C71.4523 0.918507 71.3222 0.805664 71.1776 0.805664H69.3851C69.2261 0.805664 69.1105 0.932613 69.1105 1.07367V15.6587C69.096 15.8138 69.2261 15.9267 69.3851 15.9267Z" fill="white"/>
<path d="M84.292 4.6416C82.9332 4.6416 81.7189 5.05066 80.7793 5.82646V5.06476C80.7793 4.9096 80.6492 4.79676 80.5046 4.79676H78.7122C78.5531 4.79676 78.4375 4.92371 78.4375 5.06476V19.5228C78.4375 19.678 78.5676 19.7908 78.7122 19.7908H80.5046C80.6637 19.7908 80.7793 19.6639 80.7793 19.5228V14.9103C81.7189 15.6861 82.9187 16.0952 84.292 16.0952C87.5445 16.0952 90.0019 13.6409 90.0019 10.3825C90.0019 7.11005 87.5589 4.6416 84.292 4.6416ZM80.6926 10.3684C80.6926 8.33722 82.1526 6.85615 84.1474 6.85615C86.1278 6.85615 87.6167 8.36543 87.6167 10.3684C87.6167 12.3996 86.1567 13.8665 84.1474 13.8665C82.1526 13.8665 80.6926 12.3996 80.6926 10.3684Z" fill="white"/>
</g>
<defs>
<clipPath id="clip0_1_379">
<rect width="90" height="19" fill="white" transform="translate(0 0.805664)"/>
</clipPath>
</defs>
</svg>
