<svg width="37" height="31" viewBox="0 0 37 31" fill="none" xmlns="http://www.w3.org/2000/svg">
<path d="M20.6405 12.363C20.4498 12.3591 20.2604 12.3947 20.0841 12.4675C19.9078 12.5403 19.7484 12.6487 19.616 12.786C19.4836 12.9233 19.381 13.0866 19.3147 13.2654C19.2484 13.4443 19.2198 13.6349 19.2306 13.8253C19.2306 14.2073 19.3824 14.5736 19.6524 14.8436C19.9225 15.1137 20.2888 15.2654 20.6708 15.2654C21.0527 15.2654 21.419 15.1137 21.6891 14.8436C21.9592 14.5736 22.1109 14.2073 22.1109 13.8253C22.1208 13.63 22.0895 13.4347 22.019 13.2523C21.9485 13.0699 21.8404 12.9043 21.7017 12.7664C21.563 12.6284 21.3969 12.5213 21.2141 12.4518C21.0312 12.3823 20.8358 12.3521 20.6405 12.363Z" fill="white"/>
<path d="M34.873 2.12696C34.199 1.45082 33.3978 0.914771 32.5156 0.549726C31.6334 0.18468 30.6877 -0.00214545 29.7329 1.85867e-05H7.26706C6.31252 -0.000776098 5.36718 0.18665 4.48514 0.551572C3.6031 0.916495 2.80167 1.45175 2.1267 2.12672C1.45174 2.80169 0.916479 3.60312 0.551556 4.48516C0.186634 5.3672 -0.000792168 6.31253 2.51652e-06 7.26708V18.0791C-0.000792168 19.0336 0.186634 19.9789 0.551556 20.861C0.916479 21.743 1.45174 22.5444 2.1267 23.2194C2.80167 23.8944 3.6031 24.4296 4.48514 24.7946C5.36718 25.1595 6.31252 25.3469 7.26706 25.3461H15.5533L17.9461 30.2123C17.985 30.3284 18.0594 30.4294 18.1588 30.501C18.2582 30.5725 18.3775 30.611 18.5 30.611C18.6225 30.611 18.7418 30.5725 18.8412 30.501C18.9406 30.4294 19.015 30.3284 19.0539 30.2123L21.4467 25.3381H29.7329C30.6868 25.3389 31.6315 25.1517 32.513 24.7873C33.3945 24.4229 34.1956 23.8883 34.8704 23.2142C35.5453 22.5401 36.0807 21.7396 36.4461 20.8585C36.8115 19.9774 36.9997 19.0329 37 18.0791V7.26708C37.0021 6.31235 36.8153 5.36662 36.4503 4.48443C36.0852 3.60224 35.5492 2.80102 34.873 2.12696V2.12696ZM8.15329 17.3217C7.78318 17.3376 7.41492 17.2612 7.08164 17.0995C6.74835 16.9378 6.46047 16.6958 6.24387 16.3952H6.20359V17.1042H3.94371V7.57726H6.24387V11.2027C6.48943 10.9307 6.79065 10.7148 7.12706 10.5695C7.46348 10.4242 7.82722 10.3531 8.19357 10.3608C8.63007 10.3748 9.05931 10.4763 9.45583 10.6593C9.85235 10.8423 10.2081 11.1031 10.5019 11.4263C10.7957 11.7494 11.0216 12.1282 11.1662 12.5403C11.3108 12.9524 11.3712 13.3893 11.3437 13.8252C11.3692 14.2655 11.3064 14.7064 11.1589 15.1221C11.0115 15.5378 10.7824 15.9197 10.4851 16.2455C10.1878 16.5713 9.82836 16.8344 9.42791 17.0192C9.02746 17.204 8.59409 17.3069 8.15329 17.3217V17.3217ZM15.376 17.1002H13.1605V11.6096C13.1605 10.5904 12.9832 9.7042 12.097 9.57127V7.3557C14.0467 7.3557 15.376 8.76561 15.376 11.1665V17.1002ZM20.6934 17.2774C20.2103 17.321 19.7234 17.2634 19.2638 17.1084C18.8041 16.9533 18.3818 16.7043 18.0237 16.377C17.6657 16.0498 17.3797 15.6515 17.1841 15.2077C16.9884 14.7638 16.8874 14.2841 16.8874 13.799C16.8874 13.3139 16.9884 12.8341 17.1841 12.3903C17.3797 11.9464 17.6657 11.5482 18.0237 11.2209C18.3818 10.8937 18.8041 10.6446 19.2638 10.4896C19.7234 10.3346 20.2103 10.277 20.6934 10.3205C21.1768 10.2856 21.6622 10.3499 22.1198 10.5094C22.5774 10.669 22.9975 10.9204 23.3544 11.2482C23.7113 11.5761 23.9974 11.9734 24.1951 12.4159C24.3929 12.8583 24.498 13.3366 24.5042 13.8211C24.5014 14.305 24.3982 14.7831 24.2011 15.225C24.0039 15.6669 23.7171 16.0631 23.3589 16.3884C23.0006 16.7137 22.5787 16.961 22.1199 17.1147C21.6611 17.2685 21.1753 17.3252 20.6934 17.2814V17.2774ZM32.9233 16.5241C32.9233 19.2714 31.5497 20.6451 29.1569 20.6451H28.7138V18.5665H29.1569C30.3533 18.5665 30.7078 17.8132 30.7078 16.7054V16.3952C30.4587 16.6776 30.1516 16.903 29.8075 17.0559C29.4634 17.2089 29.0903 17.2858 28.7138 17.2814C28.2887 17.2773 27.8688 17.1868 27.4798 17.0154C27.0907 16.8441 26.7405 16.5955 26.4504 16.2847C26.1604 15.9739 25.9365 15.6074 25.7923 15.2075C25.6482 14.8075 25.5868 14.3825 25.612 13.9581C25.5825 13.5109 25.6437 13.0623 25.7919 12.6394C25.9401 12.2164 26.1722 11.8277 26.4743 11.4966C26.7764 11.1656 27.1422 10.899 27.5499 10.7128C27.9576 10.5266 28.3987 10.4247 28.8467 10.4132C29.2073 10.3853 29.5689 10.4525 29.8955 10.608C30.222 10.7635 30.5021 11.0019 30.7078 11.2994H30.7521V10.5904L32.9233 10.6347V16.5241Z" fill="white"/>
<path d="M29.3809 12.3187C29.1863 12.3088 28.9918 12.3399 28.8099 12.41C28.628 12.48 28.4629 12.5873 28.3251 12.7251C28.1873 12.8629 28.0799 13.0281 28.0099 13.2099C27.9399 13.3918 27.9088 13.5863 27.9186 13.7809C27.9052 13.9764 27.9338 14.1725 28.0026 14.356C28.0713 14.5395 28.1786 14.7061 28.3171 14.8447C28.4557 14.9832 28.6223 15.0905 28.8058 15.1592C28.9893 15.228 29.1854 15.2566 29.3809 15.2432C29.5735 15.2546 29.7664 15.2241 29.9461 15.1538C30.1259 15.0836 30.2883 14.9753 30.4222 14.8364C30.5562 14.6975 30.6585 14.5312 30.7221 14.349C30.7857 14.1668 30.8092 13.973 30.7908 13.7809C30.8055 13.5896 30.7795 13.3974 30.7145 13.2169C30.6495 13.0363 30.5471 12.8716 30.4139 12.7335C30.2808 12.5954 30.1199 12.487 29.9418 12.4155C29.7638 12.344 29.5726 12.311 29.3809 12.3187Z" fill="white"/>
<path d="M7.62194 15.2878C8.42953 15.2878 9.08422 14.6331 9.08422 13.8256C9.08422 13.018 8.42953 12.3633 7.62194 12.3633C6.81435 12.3633 6.15967 13.018 6.15967 13.8256C6.15967 14.6331 6.81435 15.2878 7.62194 15.2878Z" fill="white"/>
</svg>
