<svg width="18" height="18" viewBox="0 0 18 18" fill="none" xmlns="http://www.w3.org/2000/svg">
<path d="M11.7628 11.7115C12.1558 11.8425 12.5805 11.6301 12.7115 11.2372C12.8425 10.8442 12.6301 10.4195 12.2372 10.2885L12 11L11.7628 11.7115ZM9 10H8.25C8.25 10.3228 8.45657 10.6094 8.76283 10.7115L9 10ZM9.75 5.81855C9.75 5.40434 9.41421 5.06855 9 5.06855C8.58579 5.06855 8.25 5.40434 8.25 5.81855H9H9.75ZM12 11L12.2372 10.2885L9.23717 9.28849L9 10L8.76283 10.7115L11.7628 11.7115L12 11ZM9 10H9.75V5.81855H9H8.25V10H9ZM17 9H16.25C16.25 13.0041 13.0041 16.25 9 16.25V17V17.75C13.8325 17.75 17.75 13.8325 17.75 9H17ZM9 17V16.25C4.99594 16.25 1.75 13.0041 1.75 9H1H0.25C0.25 13.8325 4.16751 17.75 9 17.75V17ZM1 9H1.75C1.75 4.99594 4.99594 1.75 9 1.75V1V0.25C4.16751 0.25 0.25 4.16751 0.25 9H1ZM9 1V1.75C13.0041 1.75 16.25 4.99594 16.25 9H17H17.75C17.75 4.16751 13.8325 0.25 9 0.25V1Z" fill="white"/>
</svg>
