<svg width="30" height="31" viewBox="0 0 30 31" fill="none" xmlns="http://www.w3.org/2000/svg">
<g clip-path="url(#clip0_1_377)">
<path d="M15 3.00684C19.0078 3.00684 19.4824 3.02441 21.0586 3.09473C22.5234 3.15918 23.3145 3.40527 23.8418 3.61035C24.5391 3.87988 25.043 4.20801 25.5645 4.72949C26.0918 5.25684 26.4141 5.75488 26.6836 6.45215C26.8887 6.97949 27.1348 7.77637 27.1992 9.23535C27.2695 10.8174 27.2871 11.292 27.2871 15.2939C27.2871 19.3018 27.2695 19.7764 27.1992 21.3525C27.1348 22.8174 26.8887 23.6084 26.6836 24.1357C26.4141 24.833 26.0859 25.3369 25.5645 25.8584C25.0371 26.3857 24.5391 26.708 23.8418 26.9775C23.3145 27.1826 22.5176 27.4287 21.0586 27.4932C19.4766 27.5635 19.002 27.5811 15 27.5811C10.9922 27.5811 10.5176 27.5635 8.94141 27.4932C7.47656 27.4287 6.68555 27.1826 6.1582 26.9775C5.46094 26.708 4.95703 26.3799 4.43555 25.8584C3.9082 25.3311 3.58594 24.833 3.31641 24.1357C3.11133 23.6084 2.86523 22.8115 2.80078 21.3525C2.73047 19.7705 2.71289 19.2959 2.71289 15.2939C2.71289 11.2861 2.73047 10.8115 2.80078 9.23535C2.86523 7.77051 3.11133 6.97949 3.31641 6.45215C3.58594 5.75488 3.91406 5.25098 4.43555 4.72949C4.96289 4.20215 5.46094 3.87988 6.1582 3.61035C6.68555 3.40527 7.48242 3.15918 8.94141 3.09473C10.5176 3.02441 10.9922 3.00684 15 3.00684ZM15 0.305664C10.9277 0.305664 10.418 0.323242 8.81836 0.393555C7.22461 0.463867 6.12891 0.72168 5.17969 1.09082C4.18945 1.47754 3.35156 1.9873 2.51953 2.8252C1.68164 3.65723 1.17188 4.49512 0.785156 5.47949C0.416016 6.43457 0.158203 7.52441 0.0878906 9.11816C0.0175781 10.7236 0 11.2334 0 15.3057C0 19.3779 0.0175781 19.8877 0.0878906 21.4873C0.158203 23.0811 0.416016 24.1768 0.785156 25.126C1.17188 26.1162 1.68164 26.9541 2.51953 27.7861C3.35156 28.6182 4.18945 29.1338 5.17383 29.5146C6.12891 29.8838 7.21875 30.1416 8.8125 30.2119C10.4121 30.2822 10.9219 30.2998 14.9941 30.2998C19.0664 30.2998 19.5762 30.2822 21.1758 30.2119C22.7695 30.1416 23.8652 29.8838 24.8145 29.5146C25.7988 29.1338 26.6367 28.6182 27.4688 27.7861C28.3008 26.9541 28.8164 26.1162 29.1973 25.1318C29.5664 24.1768 29.8242 23.0869 29.8945 21.4932C29.9648 19.8936 29.9824 19.3838 29.9824 15.3115C29.9824 11.2393 29.9648 10.7295 29.8945 9.12988C29.8242 7.53613 29.5664 6.44043 29.1973 5.49121C28.8281 4.49512 28.3184 3.65723 27.4805 2.8252C26.6484 1.99316 25.8105 1.47754 24.8262 1.09668C23.8711 0.727539 22.7813 0.469727 21.1875 0.399414C19.582 0.323242 19.0723 0.305664 15 0.305664Z" fill="white"/>
<path d="M15 7.60059C10.7461 7.60059 7.29492 11.0518 7.29492 15.3057C7.29492 19.5596 10.7461 23.0107 15 23.0107C19.2539 23.0107 22.7051 19.5596 22.7051 15.3057C22.7051 11.0518 19.2539 7.60059 15 7.60059ZM15 20.3037C12.2402 20.3037 10.002 18.0654 10.002 15.3057C10.002 12.5459 12.2402 10.3076 15 10.3076C17.7598 10.3076 19.998 12.5459 19.998 15.3057C19.998 18.0654 17.7598 20.3037 15 20.3037Z" fill="white"/>
<path d="M24.8086 7.2959C24.8086 8.292 24 9.09473 23.0098 9.09473C22.0137 9.09473 21.2109 8.28614 21.2109 7.2959C21.2109 6.29981 22.0195 5.49707 23.0098 5.49707C24 5.49707 24.8086 6.30567 24.8086 7.2959Z" fill="white"/>
</g>
<defs>
<clipPath id="clip0_1_377">
<rect width="30" height="30" fill="white" transform="translate(0 0.305664)"/>
</clipPath>
</defs>
</svg>
