<svg width="34" height="34" viewBox="0 0 34 34" fill="none" xmlns="http://www.w3.org/2000/svg">
<path d="M16.3789 9.74456C15.8486 9.10814 14.9027 9.02216 14.2663 9.5525C13.6299 10.0828 13.5439 11.0287 14.0743 11.6651L15.2266 10.7048L16.3789 9.74456ZM20.7509 17.334L21.9032 18.2943C22.3668 17.738 22.3668 16.93 21.9032 16.3737L20.7509 17.334ZM14.0743 23.0029C13.5439 23.6393 13.6299 24.5852 14.2663 25.1155C14.9027 25.6459 15.8486 25.5599 16.3789 24.9235L15.2266 23.9632L14.0743 23.0029ZM15.2266 10.7048L14.0743 11.6651L19.5986 18.2943L20.7509 17.334L21.9032 16.3737L16.3789 9.74456L15.2266 10.7048ZM20.7509 17.334L19.5986 16.3737L14.0743 23.0029L15.2266 23.9632L16.3789 24.9235L21.9032 18.2943L20.7509 17.334ZM17 32L17 30.5C9.54416 30.5 3.5 24.4558 3.5 17L2 17L0.500002 17C0.500002 26.1127 7.8873 33.5 17 33.5L17 32ZM2 17L3.5 17C3.5 9.54415 9.54416 3.5 17 3.5L17 2L17 0.499999C7.8873 0.499999 0.500003 7.8873 0.500002 17L2 17ZM17 2L17 3.5C24.4558 3.5 30.5 9.54416 30.5 17L32 17L33.5 17C33.5 7.8873 26.1127 0.5 17 0.499999L17 2ZM32 17L30.5 17C30.5 24.4558 24.4558 30.5 17 30.5L17 32L17 33.5C26.1127 33.5 33.5 26.1127 33.5 17L32 17Z" fill="white"/>
</svg>
