<svg width="44" height="44" viewBox="0 0 44 44" fill="none" xmlns="http://www.w3.org/2000/svg">
<path d="M4.5 15.75C3.80965 15.75 3.25 16.3096 3.25 17C3.25 17.6904 3.80965 18.25 4.5 18.25V17V15.75ZM39.5 18.25C40.1904 18.25 40.75 17.6904 40.75 17C40.75 16.3096 40.1904 15.75 39.5 15.75V17V18.25ZM4.70995 26.9998C4.0196 26.9998 3.45995 27.5594 3.45995 28.2498C3.45995 28.9402 4.0196 29.4998 4.70995 29.4998V28.2498V26.9998ZM39.71 29.4998C40.4003 29.4998 40.96 28.9402 40.96 28.2498C40.96 27.5594 40.4003 26.9998 39.71 26.9998V28.2498V29.4998ZM42 22H40.75C40.75 32.3553 32.3553 40.75 22 40.75V42V43.25C33.7361 43.25 43.25 33.7361 43.25 22H42ZM22 42V40.75C11.6447 40.75 3.25 32.3553 3.25 22H2H0.75C0.75 33.7361 10.2639 43.25 22 43.25V42ZM2 22H3.25C3.25 11.6447 11.6447 3.25 22 3.25V2V0.75C10.2639 0.75 0.75 10.2639 0.75 22H2ZM22 2V3.25C32.3553 3.25 40.75 11.6447 40.75 22H42H43.25C43.25 10.2639 33.7361 0.75 22 0.75V2ZM22 42V40.75C21.2055 40.75 20.35 40.3872 19.4629 39.5296C18.5699 38.6662 17.7085 37.3565 16.958 35.6411C15.4587 32.214 14.5 27.3921 14.5 22H13.25H12C12 27.6536 13.0001 32.8317 14.6676 36.6432C15.5006 38.5471 16.5247 40.1663 17.7253 41.327C18.9319 42.4935 20.3783 43.25 22 43.25V42ZM13.25 22H14.5C14.5 16.6079 15.4587 11.786 16.958 8.35889C17.7085 6.64349 18.5699 5.33379 19.4629 4.47039C20.35 3.6128 21.2055 3.25 22 3.25V2V0.75C20.3783 0.75 18.9319 1.50649 17.7253 2.67301C16.5247 3.83372 15.5006 5.45295 14.6676 7.35684C13.0001 11.1683 12 16.3464 12 22H13.25ZM22 42V43.25C23.6217 43.25 25.0681 42.4935 26.2747 41.327C27.4753 40.1663 28.4994 38.5471 29.3324 36.6432C30.9999 32.8317 32 27.6536 32 22H30.75H29.5C29.5 27.3921 28.5413 32.214 27.042 35.6411C26.2915 37.3565 25.4301 38.6662 24.5371 39.5296C23.65 40.3872 22.7945 40.75 22 40.75V42ZM30.75 22H32C32 16.3464 30.9999 11.1683 29.3324 7.35684C28.4994 5.45295 27.4753 3.83372 26.2747 2.67301C25.0681 1.50649 23.6217 0.75 22 0.75V2V3.25C22.7945 3.25 23.65 3.6128 24.5371 4.47039C25.4301 5.33379 26.2915 6.64349 27.042 8.35889C28.5413 11.786 29.5 16.6079 29.5 22H30.75ZM4.5 17V18.25H39.5V17V15.75H4.5V17ZM4.70995 28.2498V29.4998H39.71V28.2498V26.9998H4.70995V28.2498Z" fill="white"/>
</svg>
