<svg width="30" height="22" viewBox="0 0 30 22" fill="none" xmlns="http://www.w3.org/2000/svg">
<path d="M29.7012 5.33691C29.7012 5.33691 29.4082 3.27831 28.5059 2.37439C27.3633 1.18473 26.0859 1.17889 25.5 1.10891C21.3047 0.805664 15.0059 0.805664 15.0059 0.805664H14.9941C14.9941 0.805664 8.69531 0.805664 4.5 1.10891C3.91406 1.17889 2.63672 1.18473 1.49414 2.37439C0.591797 3.27831 0.304687 5.33691 0.304687 5.33691C0.304687 5.33691 0 7.75707 0 10.1714V12.4341C0 14.8484 0.298828 17.2686 0.298828 17.2686C0.298828 17.2686 0.591797 19.3272 1.48828 20.2311C2.63086 21.4208 4.13086 21.3799 4.79883 21.5082C7.20117 21.7357 15 21.8057 15 21.8057C15 21.8057 21.3047 21.794 25.5 21.4966C26.0859 21.4266 27.3633 21.4208 28.5059 20.2311C29.4082 19.3272 29.7012 17.2686 29.7012 17.2686C29.7012 17.2686 30 14.8543 30 12.4341V10.1714C30 7.75707 29.7012 5.33691 29.7012 5.33691ZM11.9004 15.1808V6.789L20.0039 10.9995L11.9004 15.1808Z" fill="white"/>
</svg>
